# xmcd
#
# Track frame offsets: 
#        150
#        7308
#        15730
#        25108
#        40990
#        54572
#        62672
#        74814
#        91845
#        102863
#        112698
#        120464
#        128819
#        138211
#        148080
#        167686
#
# Disc length: 2408 seconds
#
# Revision: 2
# Processed by: cddbd v1.5.2PL0 Copyright (c) Steve Scherf et al.
# Submitted via: ExactAudioCopy v0.99pb5
#
DISCID=d9096610
DTITLE=Black Lips - Let it Bloom
DYEAR=2005
DGENRE=
TTITLE0=Sea of Blasphemy
TTITLE1=Can't Dance
TTITLE2=Boomerang
TTITLE3=Hippie, Hippie, Hoorah
TTITLE4=Not a Problem
TTITLE5=Gung Ho
TTITLE6=Everybody's Doin' It
TTITLE7=Feeling Gay
TTITLE8=Take Me Home (Back to Boone)
TTITLE9=Gentle Violence
TTITLE10=She's Gone
TTITLE11=Fairy Stories
TTITLE12=Dirty Hands
TTITLE13=Workin'
TTITLE14=Punk Slime
TTITLE15=Empassant
EXTD=
EXTT0=
EXTT1=
EXTT2=
EXTT3=
EXTT4=
EXTT5=
EXTT6=
EXTT7=
EXTT8=
EXTT9=
EXTT10=
EXTT11=
EXTT12=
EXTT13=
EXTT14=
EXTT15=
PLAYORDER=
